<?xml version="1.0" standalone="no"?>
<!DOCTYPE svg PUBLIC "-//W3C//DTD SVG 20010904//EN"
 "http://www.w3.org/TR/2001/REC-SVG-20010904/DTD/svg10.dtd">
<svg version="1.0" xmlns="http://www.w3.org/2000/svg"
 width="1972.000000pt" height="153.000000pt" viewBox="0 0 1972.000000 153.000000"
 preserveAspectRatio="xMidYMid meet">
<metadata>
Created by potrace 1.16, written by Peter Selinger 2001-2019
</metadata>
<g transform="translate(0.000000,153.000000) scale(0.100000,-0.100000)"
fill="#000000" stroke="none">
<path d="M525 1520 l-370 -5 -47 -27 c-36 -22 -53 -41 -75 -85 l-28 -58 0
-405 c0 -404 0 -405 23 -452 13 -27 37 -57 54 -69 68 -49 90 -50 598 -48 261
2 499 6 528 10 66 9 121 45 151 99 22 40 23 43 21 448 0 242 -5 422 -11 445
-14 51 -71 112 -122 131 -53 19 -228 23 -722 16z m677 -72 c18 -6 44 -20 56
-32 51 -45 52 -55 52 -364 0 -283 0 -290 -22 -322 -52 -75 -14 -71 -586 -70
-574 0 -550 -3 -600 72 l-27 42 2 284 c2 252 5 288 20 315 24 40 64 68 110 77
65 13 957 11 995 -2z m-467 -894 c22 -23 15 -63 -16 -87 -22 -16 -30 -17 -48
-7 -55 29 -41 110 19 110 15 0 36 -7 45 -16z m285 -19 c15 -18 7 -43 -16 -52
-24 -9 -46 24 -33 48 12 23 32 24 49 4z m145 -20 c0 -25 -4 -30 -25 -30 -16 0
-26 6 -28 18 -6 30 6 49 30 45 18 -2 23 -9 23 -33z"/>
<path d="M544 1360 c-71 -35 -136 -101 -167 -168 -31 -67 -31 -207 0 -274 47
-102 141 -174 260 -199 124 -26 265 36 341 150 91 136 75 294 -42 419 -69 74
-122 96 -236 100 -89 3 -99 2 -156 -28z m39 -62 c-15 -24 -28 -44 -29 -46 -1
-1 -13 3 -28 9 -21 10 -24 15 -13 27 9 12 81 51 95 52 1 0 -10 -19 -25 -42z
m297 -17 c0 -4 -11 -13 -25 -19 -21 -10 -26 -9 -36 11 -7 12 -19 33 -27 46
l-16 23 52 -26 c29 -15 52 -30 52 -35z m-210 -1 c0 -48 -1 -50 -28 -50 -37 0
-44 8 -30 34 10 20 48 66 55 66 2 0 3 -22 3 -50z m90 8 c32 -44 28 -58 -17
-58 -21 0 -23 5 -23 50 0 28 2 50 5 50 3 0 18 -19 35 -42z m-255 -65 c25 -12
34 -21 29 -32 -3 -9 -9 -37 -11 -63 l-6 -48 -62 0 -63 0 9 41 c11 46 24 75 47
102 18 21 14 21 57 0z m451 -33 c13 -25 26 -60 30 -77 l7 -33 -60 0 -60 0 -6
48 c-3 26 -8 54 -12 63 -4 10 5 20 27 31 18 9 37 16 42 14 5 -1 19 -22 32 -46z
m-286 -62 l0 -48 -56 0 -56 0 7 43 c12 77 10 75 60 64 l45 -10 0 -49z m144 45
c3 -10 8 -35 12 -55 l6 -38 -56 0 -56 0 0 40 c0 22 -1 43 -2 47 -3 7 38 19 74
22 9 0 19 -7 22 -16z m-300 -144 c2 -2 6 -27 10 -55 6 -51 6 -52 -30 -73 -40
-24 -48 -22 -69 19 -14 28 -35 106 -30 112 5 4 115 1 119 -3z m156 -43 l0 -44
-42 -4 c-24 -3 -46 -2 -49 1 -4 3 -10 25 -14 49 l-7 42 56 0 56 0 0 -44z m155
2 c-4 -24 -10 -46 -14 -49 -3 -3 -25 -4 -48 -1 l-43 4 0 44 0 44 56 0 56 0 -7
-42z m162 13 c-8 -38 -48 -123 -56 -118 -3 2 -21 10 -39 18 -31 13 -33 17 -28
49 3 19 6 45 6 58 0 20 4 22 61 22 l62 0 -6 -29z m-317 -163 l0 -61 -21 19
c-12 10 -30 36 -40 56 l-19 37 23 4 c57 11 57 11 57 -55z m128 47 c5 -5 -55
-92 -68 -100 -6 -4 -10 17 -10 56 l0 61 38 -7 c20 -4 39 -8 40 -10z m-221 -64
l26 -44 -28 7 c-31 8 -85 43 -85 55 0 9 41 31 53 28 4 -1 19 -22 34 -46z m304
38 c26 -13 12 -32 -44 -60 -49 -26 -57 -19 -23 21 14 17 26 36 26 41 0 12 17
11 41 -2z"/>
<path d="M225 1365 c-44 -18 -62 -44 -73 -102 -7 -42 -6 -53 5 -58 22 -8 33 3
33 35 0 31 43 90 66 90 15 0 20 35 6 44 -4 2 -21 -2 -37 -9z"/>
<path d="M2890 1048 c0 -308 -4 -476 -11 -503 -7 -25 -29 -58 -58 -87 -58 -58
-133 -83 -228 -75 -147 11 -247 105 -268 252 l-7 45 -230 0 -230 0 7 -56 c31
-247 209 -467 439 -539 244 -78 592 -52 785 57 84 48 176 141 211 212 62 128
63 135 68 669 l4 487 -241 0 -241 0 0 -462z"/>
<path d="M5140 775 l0 -735 230 0 230 0 0 735 0 735 -230 0 -230 0 0 -735z"/>
<path d="M5770 1360 l0 -150 230 0 230 0 0 150 0 150 -230 0 -230 0 0 -150z"/>
<path d="M10290 775 l0 -735 245 0 245 0 0 280 0 280 390 0 390 0 0 -280 0
-280 245 0 245 0 0 735 0 735 -245 0 -245 0 0 -260 0 -260 -390 0 -390 0 0
260 0 260 -245 0 -245 0 0 -735z"/>
<path d="M15980 1260 l0 -249 -55 38 c-94 66 -270 111 -435 111 -152 0 -267
-47 -369 -149 -160 -160 -212 -406 -134 -633 82 -238 261 -368 507 -368 169 0
339 42 443 109 67 43 67 44 78 -33 l7 -46 209 0 209 0 0 735 0 735 -230 0
-230 0 0 -250z m-139 -407 c59 -32 111 -98 129 -161 15 -57 12 -172 -7 -228
-24 -70 -103 -147 -173 -168 -166 -50 -312 25 -361 184 -52 172 24 348 171
395 73 24 177 14 241 -22z"/>
<path d="M17150 1163 c-317 -56 -533 -243 -572 -495 -45 -297 160 -550 518
-640 118 -30 390 -32 529 -4 276 54 441 195 461 394 l7 62 -226 0 -226 0 -7
-37 c-14 -80 -49 -121 -134 -162 -48 -22 -68 -26 -150 -25 -109 0 -146 12
-210 70 -47 43 -86 113 -96 173 l-7 41 527 0 526 0 0 63 c-1 347 -307 580
-758 576 -53 0 -135 -8 -182 -16z m348 -255 c31 -16 58 -41 80 -72 31 -48 49
-92 40 -102 -3 -2 -132 -3 -286 -2 l-282 3 24 50 c27 58 89 118 137 133 63 20
74 21 157 18 63 -3 94 -10 130 -28z"/>
<path d="M18770 1163 c-317 -56 -533 -243 -572 -495 -45 -297 160 -550 518
-640 118 -30 390 -32 529 -4 276 54 441 195 461 394 l7 62 -226 0 -226 0 -7
-37 c-14 -80 -49 -121 -134 -162 -48 -22 -68 -26 -150 -25 -109 0 -146 12
-210 70 -47 43 -86 113 -96 173 l-7 41 527 0 526 0 0 63 c-1 347 -307 580
-758 576 -53 0 -135 -8 -182 -16z m348 -255 c31 -16 58 -41 80 -72 31 -48 49
-92 40 -102 -3 -2 -132 -3 -286 -2 l-282 3 24 50 c27 58 89 118 137 133 63 20
74 21 157 18 63 -3 94 -10 130 -28z"/>
<path d="M6890 1154 c-170 -25 -319 -82 -407 -158 -46 -40 -88 -118 -98 -183
l-7 -43 230 0 230 0 7 28 c11 48 35 73 93 100 50 23 70 26 167 27 125 0 211
-21 251 -60 32 -32 34 -103 3 -131 -20 -18 -46 -19 -363 -25 -228 -4 -354 -10
-381 -19 -109 -34 -178 -89 -217 -175 -18 -41 -23 -67 -23 -145 1 -189 56
-259 255 -322 66 -20 94 -23 230 -22 235 1 409 45 487 122 l31 32 17 -70 17
-70 217 2 216 3 3 330 c4 453 -7 522 -100 615 -76 76 -265 146 -458 170 -112
13 -283 11 -400 -6z m476 -689 c-20 -50 -66 -99 -120 -128 -33 -17 -64 -22
-151 -25 -67 -2 -128 1 -154 8 -124 33 -137 164 -20 199 23 7 121 17 218 21
97 5 190 13 206 18 28 8 30 7 33 -21 2 -17 -4 -49 -12 -72z"/>
<path d="M12740 1154 c-170 -25 -319 -82 -407 -158 -46 -40 -88 -118 -98 -183
l-7 -43 230 0 230 0 7 28 c11 48 35 73 93 100 50 23 70 26 167 27 125 0 211
-21 251 -60 32 -32 34 -103 3 -131 -20 -18 -46 -19 -363 -25 -228 -4 -354 -10
-381 -19 -109 -34 -178 -89 -217 -175 -18 -41 -23 -67 -23 -145 1 -189 56
-259 255 -322 66 -20 94 -23 230 -22 235 1 409 45 487 122 l31 32 17 -70 17
-70 217 2 216 3 3 330 c4 453 -7 522 -100 615 -76 76 -265 146 -458 170 -112
13 -283 11 -400 -6z m476 -689 c-20 -50 -66 -99 -120 -128 -33 -17 -64 -22
-151 -25 -67 -2 -128 1 -154 8 -124 33 -137 164 -20 199 23 7 121 17 218 21
97 5 190 13 206 18 28 8 30 7 33 -21 2 -17 -4 -49 -12 -72z"/>
<path d="M8756 1144 c-83 -16 -185 -62 -243 -110 l-43 -35 0 60 0 61 -230 0
-230 0 0 -540 0 -540 229 0 230 0 4 323 c4 350 7 374 60 434 47 54 97 73 194
73 92 0 126 -10 166 -48 74 -70 87 -142 87 -509 l0 -273 230 0 230 0 0 223 c0
376 -23 539 -92 669 -57 107 -178 193 -307 218 -72 14 -201 11 -285 -6z"/>
<path d="M5770 595 l0 -555 230 0 230 0 0 555 0 555 -230 0 -230 0 0 -555z"/>
<path d="M14680 1120 c-142 -30 -263 -87 -338 -160 -13 -12 -25 -20 -28 -17
-3 2 -12 43 -21 91 l-17 86 -208 0 -208 0 0 -540 0 -540 229 0 230 0 3 277 c3
227 6 286 20 321 24 64 58 108 103 134 36 21 55 23 203 26 l162 4 0 169 c0
196 14 180 -130 149z"/>
<path d="M3560 858 c0 -271 9 -389 35 -493 73 -283 304 -410 638 -350 89 16
182 56 247 108 l45 37 3 -60 3 -60 229 0 230 0 0 540 0 540 -230 0 -230 0 0
-252 c0 -258 -8 -348 -36 -428 -40 -110 -101 -149 -229 -150 -104 0 -157 25
-198 90 -40 67 -47 132 -47 453 l0 287 -230 0 -230 0 0 -262z"/>
<path d="M510 309 c0 -7 -9 -42 -20 -79 l-20 -68 -60 -4 c-64 -5 -76 -11 -82
-43 -3 -20 3 -20 356 -23 198 -1 364 2 368 6 12 12 0 39 -20 48 -9 4 -42 10
-72 13 l-54 6 -20 78 -21 77 -177 0 c-127 0 -178 -3 -178 -11z"/>
<path d="M204 65 c-16 -13 -17 -16 -4 -25 33 -22 84 2 58 28 -16 16 -30 15
-54 -3z"/>
<path d="M1137 73 c-28 -7 -16 -38 16 -41 18 -2 29 2 34 13 5 15 -12 37 -27
34 -3 -1 -13 -3 -23 -6z"/>
<path d="M437 24 c-16 -16 -5 -24 34 -24 28 0 39 4 37 13 -5 13 -60 22 -71 11z"/>
<path d="M597 24 c-17 -17 11 -24 94 -24 68 0 90 3 87 13 -5 13 -168 23 -181
11z"/>
<path d="M872 24 c-24 -11 0 -24 44 -24 32 0 44 4 42 13 -5 12 -63 20 -86 11z"/>
</g>
</svg>
